<?xml version="1.0" standalone="no"?>
<!DOCTYPE svg PUBLIC "-//W3C//DTD SVG 1.1//EN" "http://www.w3.org/Graphics/SVG/1.1/DTD/svg11.dtd">
<svg width="800" height="600" version="1.1" xmlns="http://www.w3.org/2000/svg">
<rect width="800" height="600" x="0" y="0" style="fill:rgb(238,238,238);stroke:none"/>
<rect width="800" height="600" x="0" y="0" style="fill:rgb(255,255,255);stroke:none"/>
<text x="2" y="566" fill="rgb(0,0,0)" font-family="Arial" font-size="12">0</text>
<text x="2" y="537" fill="rgb(0,0,0)" font-family="Arial" font-size="12">2</text>
<text x="2" y="507" fill="rgb(0,0,0)" font-family="Arial" font-size="12">4</text>
<text x="2" y="477" fill="rgb(0,0,0)" font-family="Arial" font-size="12">6</text>
<text x="2" y="448" fill="rgb(0,0,0)" font-family="Arial" font-size="12">8</text>
<text x="2" y="418" fill="rgb(0,0,0)" font-family="Arial" font-size="12">10</text>
<text x="2" y="388" fill="rgb(0,0,0)" font-family="Arial" font-size="12">12</text>
<text x="2" y="358" fill="rgb(0,0,0)" font-family="Arial" font-size="12">14</text>
<text x="2" y="329" fill="rgb(0,0,0)" font-family="Arial" font-size="12">16</text>
<text x="2" y="299" fill="rgb(0,0,0)" font-family="Arial" font-size="12">18</text>
<text x="2" y="269" fill="rgb(0,0,0)" font-family="Arial" font-size="12">20</text>
<text x="2" y="240" fill="rgb(0,0,0)" font-family="Arial" font-size="12">22</text>
<text x="2" y="210" fill="rgb(0,0,0)" font-family="Arial" font-size="12">24</text>
<text x="2" y="180" fill="rgb(0,0,0)" font-family="Arial" font-size="12">26</text>
<text x="2" y="150" fill="rgb(0,0,0)" font-family="Arial" font-size="12">28</text>
<text x="2" y="121" fill="rgb(0,0,0)" font-family="Arial" font-size="12">30</text>
<text x="2" y="91" fill="rgb(0,0,0)" font-family="Arial" font-size="12">32</text>
<text x="2" y="61" fill="rgb(0,0,0)" font-family="Arial" font-size="12">34</text>
<text x="223" y="30" fill="rgb(0,0,0)" font-family="Arial" font-size="12">Quality scores across all bases (Sanger / Illumina 1.9 encoding)</text>
<rect width="20" height="297" x="21" y="263" style="fill:rgb(230,175,175);stroke:none"/>
<rect width="20" height="119" x="21" y="144" style="fill:rgb(230,215,175);stroke:none"/>
<rect width="20" height="104" x="21" y="40" style="fill:rgb(175,230,175);stroke:none"/>
<text x="27" y="575" fill="rgb(0,0,0)" font-family="Arial" font-size="12">1</text>
<rect width="20" height="297" x="41" y="263" style="fill:rgb(230,195,195);stroke:none"/>
<rect width="20" height="119" x="41" y="144" style="fill:rgb(230,220,195);stroke:none"/>
<rect width="20" height="104" x="41" y="40" style="fill:rgb(195,230,195);stroke:none"/>
<text x="47" y="575" fill="rgb(0,0,0)" font-family="Arial" font-size="12">2</text>
<rect width="20" height="297" x="61" y="263" style="fill:rgb(230,175,175);stroke:none"/>
<rect width="20" height="119" x="61" y="144" style="fill:rgb(230,215,175);stroke:none"/>
<rect width="20" height="104" x="61" y="40" style="fill:rgb(175,230,175);stroke:none"/>
<text x="67" y="575" fill="rgb(0,0,0)" font-family="Arial" font-size="12">3</text>
<rect width="20" height="297" x="81" y="263" style="fill:rgb(230,195,195);stroke:none"/>
<rect width="20" height="119" x="81" y="144" style="fill:rgb(230,220,195);stroke:none"/>
<rect width="20" height="104" x="81" y="40" style="fill:rgb(195,230,195);stroke:none"/>
<text x="87" y="575" fill="rgb(0,0,0)" font-family="Arial" font-size="12">4</text>
<rect width="20" height="297" x="101" y="263" style="fill:rgb(230,175,175);stroke:none"/>
<rect width="20" height="119" x="101" y="144" style="fill:rgb(230,215,175);stroke:none"/>
<rect width="20" height="104" x="101" y="40" style="fill:rgb(175,230,175);stroke:none"/>
<text x="107" y="575" fill="rgb(0,0,0)" font-family="Arial" font-size="12">5</text>
<rect width="20" height="297" x="121" y="263" style="fill:rgb(230,195,195);stroke:none"/>
<rect width="20" height="119" x="121" y="144" style="fill:rgb(230,220,195);stroke:none"/>
<rect width="20" height="104" x="121" y="40" style="fill:rgb(195,230,195);stroke:none"/>
<text x="127" y="575" fill="rgb(0,0,0)" font-family="Arial" font-size="12">6</text>
<rect width="20" height="297" x="141" y="263" style="fill:rgb(230,175,175);stroke:none"/>
<rect width="20" height="119" x="141" y="144" style="fill:rgb(230,215,175);stroke:none"/>
<rect width="20" height="104" x="141" y="40" style="fill:rgb(175,230,175);stroke:none"/>
<text x="147" y="575" fill="rgb(0,0,0)" font-family="Arial" font-size="12">7</text>
<rect width="20" height="297" x="161" y="263" style="fill:rgb(230,195,195);stroke:none"/>
<rect width="20" height="119" x="161" y="144" style="fill:rgb(230,220,195);stroke:none"/>
<rect width="20" height="104" x="161" y="40" style="fill:rgb(195,230,195);stroke:none"/>
<text x="167" y="575" fill="rgb(0,0,0)" font-family="Arial" font-size="12">8</text>
<rect width="20" height="297" x="181" y="263" style="fill:rgb(230,175,175);stroke:none"/>
<rect width="20" height="119" x="181" y="144" style="fill:rgb(230,215,175);stroke:none"/>
<rect width="20" height="104" x="181" y="40" style="fill:rgb(175,230,175);stroke:none"/>
<text x="187" y="575" fill="rgb(0,0,0)" font-family="Arial" font-size="12">9</text>
<rect width="20" height="297" x="201" y="263" style="fill:rgb(230,195,195);stroke:none"/>
<rect width="20" height="119" x="201" y="144" style="fill:rgb(230,220,195);stroke:none"/>
<rect width="20" height="104" x="201" y="40" style="fill:rgb(195,230,195);stroke:none"/>
<rect width="20" height="297" x="221" y="263" style="fill:rgb(230,175,175);stroke:none"/>
<rect width="20" height="119" x="221" y="144" style="fill:rgb(230,215,175);stroke:none"/>
<rect width="20" height="104" x="221" y="40" style="fill:rgb(175,230,175);stroke:none"/>
<text x="212" y="575" fill="rgb(0,0,0)" font-family="Arial" font-size="12">15-19</text>
<rect width="20" height="297" x="241" y="263" style="fill:rgb(230,195,195);stroke:none"/>
<rect width="20" height="119" x="241" y="144" style="fill:rgb(230,220,195);stroke:none"/>
<rect width="20" height="104" x="241" y="40" style="fill:rgb(195,230,195);stroke:none"/>
<rect width="20" height="297" x="261" y="263" style="fill:rgb(230,175,175);stroke:none"/>
<rect width="20" height="119" x="261" y="144" style="fill:rgb(230,215,175);stroke:none"/>
<rect width="20" height="104" x="261" y="40" style="fill:rgb(175,230,175);stroke:none"/>
<rect width="20" height="297" x="281" y="263" style="fill:rgb(230,195,195);stroke:none"/>
<rect width="20" height="119" x="281" y="144" style="fill:rgb(230,220,195);stroke:none"/>
<rect width="20" height="104" x="281" y="40" style="fill:rgb(195,230,195);stroke:none"/>
<text x="272" y="575" fill="rgb(0,0,0)" font-family="Arial" font-size="12">30-34</text>
<rect width="20" height="297" x="301" y="263" style="fill:rgb(230,175,175);stroke:none"/>
<rect width="20" height="119" x="301" y="144" style="fill:rgb(230,215,175);stroke:none"/>
<rect width="20" height="104" x="301" y="40" style="fill:rgb(175,230,175);stroke:none"/>
<rect width="20" height="297" x="321" y="263" style="fill:rgb(230,195,195);stroke:none"/>
<rect width="20" height="119" x="321" y="144" style="fill:rgb(230,220,195);stroke:none"/>
<rect width="20" height="104" x="321" y="40" style="fill:rgb(195,230,195);stroke:none"/>
<rect width="20" height="297" x="341" y="263" style="fill:rgb(230,175,175);stroke:none"/>
<rect width="20" height="119" x="341" y="144" style="fill:rgb(230,215,175);stroke:none"/>
<rect width="20" height="104" x="341" y="40" style="fill:rgb(175,230,175);stroke:none"/>
<text x="332" y="575" fill="rgb(0,0,0)" font-family="Arial" font-size="12">45-49</text>
<rect width="20" height="297" x="361" y="263" style="fill:rgb(230,195,195);stroke:none"/>
<rect width="20" height="119" x="361" y="144" style="fill:rgb(230,220,195);stroke:none"/>
<rect width="20" height="104" x="361" y="40" style="fill:rgb(195,230,195);stroke:none"/>
<rect width="20" height="297" x="381" y="263" style="fill:rgb(230,175,175);stroke:none"/>
<rect width="20" height="119" x="381" y="144" style="fill:rgb(230,215,175);stroke:none"/>
<rect width="20" height="104" x="381" y="40" style="fill:rgb(175,230,175);stroke:none"/>
<rect width="20" height="297" x="401" y="263" style="fill:rgb(230,195,195);stroke:none"/>
<rect width="20" height="119" x="401" y="144" style="fill:rgb(230,220,195);stroke:none"/>
<rect width="20" height="104" x="401" y="40" style="fill:rgb(195,230,195);stroke:none"/>
<text x="392" y="575" fill="rgb(0,0,0)" font-family="Arial" font-size="12">60-64</text>
<rect width="20" height="297" x="421" y="263" style="fill:rgb(230,175,175);stroke:none"/>
<rect width="20" height="119" x="421" y="144" style="fill:rgb(230,215,175);stroke:none"/>
<rect width="20" height="104" x="421" y="40" style="fill:rgb(175,230,175);stroke:none"/>
<rect width="20" height="297" x="441" y="263" style="fill:rgb(230,195,195);stroke:none"/>
<rect width="20" height="119" x="441" y="144" style="fill:rgb(230,220,195);stroke:none"/>
<rect width="20" height="104" x="441" y="40" style="fill:rgb(195,230,195);stroke:none"/>
<rect width="20" height="297" x="461" y="263" style="fill:rgb(230,175,175);stroke:none"/>
<rect width="20" height="119" x="461" y="144" style="fill:rgb(230,215,175);stroke:none"/>
<rect width="20" height="104" x="461" y="40" style="fill:rgb(175,230,175);stroke:none"/>
<text x="452" y="575" fill="rgb(0,0,0)" font-family="Arial" font-size="12">75-79</text>
<rect width="20" height="297" x="481" y="263" style="fill:rgb(230,195,195);stroke:none"/>
<rect width="20" height="119" x="481" y="144" style="fill:rgb(230,220,195);stroke:none"/>
<rect width="20" height="104" x="481" y="40" style="fill:rgb(195,230,195);stroke:none"/>
<rect width="20" height="297" x="501" y="263" style="fill:rgb(230,175,175);stroke:none"/>
<rect width="20" height="119" x="501" y="144" style="fill:rgb(230,215,175);stroke:none"/>
<rect width="20" height="104" x="501" y="40" style="fill:rgb(175,230,175);stroke:none"/>
<rect width="20" height="297" x="521" y="263" style="fill:rgb(230,195,195);stroke:none"/>
<rect width="20" height="119" x="521" y="144" style="fill:rgb(230,220,195);stroke:none"/>
<rect width="20" height="104" x="521" y="40" style="fill:rgb(195,230,195);stroke:none"/>
<text x="512" y="575" fill="rgb(0,0,0)" font-family="Arial" font-size="12">90-94</text>
<rect width="20" height="297" x="541" y="263" style="fill:rgb(230,175,175);stroke:none"/>
<rect width="20" height="119" x="541" y="144" style="fill:rgb(230,215,175);stroke:none"/>
<rect width="20" height="104" x="541" y="40" style="fill:rgb(175,230,175);stroke:none"/>
<rect width="20" height="297" x="561" y="263" style="fill:rgb(230,195,195);stroke:none"/>
<rect width="20" height="119" x="561" y="144" style="fill:rgb(230,220,195);stroke:none"/>
<rect width="20" height="104" x="561" y="40" style="fill:rgb(195,230,195);stroke:none"/>
<rect width="20" height="297" x="581" y="263" style="fill:rgb(230,175,175);stroke:none"/>
<rect width="20" height="119" x="581" y="144" style="fill:rgb(230,215,175);stroke:none"/>
<rect width="20" height="104" x="581" y="40" style="fill:rgb(175,230,175);stroke:none"/>
<text x="564" y="575" fill="rgb(0,0,0)" font-family="Arial" font-size="12">105-109</text>
<rect width="20" height="297" x="601" y="263" style="fill:rgb(230,195,195);stroke:none"/>
<rect width="20" height="119" x="601" y="144" style="fill:rgb(230,220,195);stroke:none"/>
<rect width="20" height="104" x="601" y="40" style="fill:rgb(195,230,195);stroke:none"/>
<rect width="20" height="297" x="621" y="263" style="fill:rgb(230,175,175);stroke:none"/>
<rect width="20" height="119" x="621" y="144" style="fill:rgb(230,215,175);stroke:none"/>
<rect width="20" height="104" x="621" y="40" style="fill:rgb(175,230,175);stroke:none"/>
<rect width="20" height="297" x="641" y="263" style="fill:rgb(230,195,195);stroke:none"/>
<rect width="20" height="119" x="641" y="144" style="fill:rgb(230,220,195);stroke:none"/>
<rect width="20" height="104" x="641" y="40" style="fill:rgb(195,230,195);stroke:none"/>
<rect width="20" height="297" x="661" y="263" style="fill:rgb(230,175,175);stroke:none"/>
<rect width="20" height="119" x="661" y="144" style="fill:rgb(230,215,175);stroke:none"/>
<rect width="20" height="104" x="661" y="40" style="fill:rgb(175,230,175);stroke:none"/>
<text x="644" y="575" fill="rgb(0,0,0)" font-family="Arial" font-size="12">125-129</text>
<rect width="20" height="297" x="681" y="263" style="fill:rgb(230,195,195);stroke:none"/>
<rect width="20" height="119" x="681" y="144" style="fill:rgb(230,220,195);stroke:none"/>
<rect width="20" height="104" x="681" y="40" style="fill:rgb(195,230,195);stroke:none"/>
<rect width="20" height="297" x="701" y="263" style="fill:rgb(230,175,175);stroke:none"/>
<rect width="20" height="119" x="701" y="144" style="fill:rgb(230,215,175);stroke:none"/>
<rect width="20" height="104" x="701" y="40" style="fill:rgb(175,230,175);stroke:none"/>
<rect width="20" height="297" x="721" y="263" style="fill:rgb(230,195,195);stroke:none"/>
<rect width="20" height="119" x="721" y="144" style="fill:rgb(230,220,195);stroke:none"/>
<rect width="20" height="104" x="721" y="40" style="fill:rgb(195,230,195);stroke:none"/>
<rect width="20" height="297" x="741" y="263" style="fill:rgb(230,175,175);stroke:none"/>
<rect width="20" height="119" x="741" y="144" style="fill:rgb(230,215,175);stroke:none"/>
<rect width="20" height="104" x="741" y="40" style="fill:rgb(175,230,175);stroke:none"/>
<text x="724" y="575" fill="rgb(0,0,0)" font-family="Arial" font-size="12">145-149</text>
<rect width="20" height="297" x="761" y="263" style="fill:rgb(230,195,195);stroke:none"/>
<rect width="20" height="119" x="761" y="144" style="fill:rgb(230,220,195);stroke:none"/>
<rect width="20" height="104" x="761" y="40" style="fill:rgb(195,230,195);stroke:none"/>
<line x1="21" y1="560" x2="790" y2="560" stroke="rgb(0,0,0)" stroke-width="1"/>
<line x1="21" y1="560" x2="21" y2="40" stroke="rgb(0,0,0)" stroke-width="1"/>
<text x="342" y="595" fill="rgb(0,0,0)" font-family="Arial" font-size="12">Position in read (bp)</text>
<rect width="16" height="0" x="23" y="115" style="fill:rgb(240,240,0);stroke:none"/>
<rect width="16" height="0" x="23" y="115" rx="0" ry="0" style="fill:none;stroke-width:1;stroke:rgb(0,0,0)"/>
<line x1="31" y1="115" x2="31" y2="115" stroke="rgb(0,0,0)" stroke-width="1"/>
<line x1="23" y1="115" x2="39" y2="115" stroke="rgb(0,0,0)" stroke-width="1"/>
<line x1="31" y1="115" x2="31" y2="115" stroke="rgb(0,0,0)" stroke-width="1"/>
<line x1="23" y1="115" x2="39" y2="115" stroke="rgb(0,0,0)" stroke-width="1"/>
<line x1="23" y1="115" x2="39" y2="115" stroke="rgb(200,0,0)" stroke-width="1"/>
<rect width="16" height="0" x="43" y="115" style="fill:rgb(240,240,0);stroke:none"/>
<rect width="16" height="0" x="43" y="115" rx="0" ry="0" style="fill:none;stroke-width:1;stroke:rgb(0,0,0)"/>
<line x1="51" y1="115" x2="51" y2="115" stroke="rgb(0,0,0)" stroke-width="1"/>
<line x1="43" y1="115" x2="59" y2="115" stroke="rgb(0,0,0)" stroke-width="1"/>
<line x1="51" y1="115" x2="51" y2="115" stroke="rgb(0,0,0)" stroke-width="1"/>
<line x1="43" y1="115" x2="59" y2="115" stroke="rgb(0,0,0)" stroke-width="1"/>
<line x1="43" y1="115" x2="59" y2="115" stroke="rgb(200,0,0)" stroke-width="1"/>
<rect width="16" height="0" x="63" y="115" style="fill:rgb(240,240,0);stroke:none"/>
<rect width="16" height="0" x="63" y="115" rx="0" ry="0" style="fill:none;stroke-width:1;stroke:rgb(0,0,0)"/>
<line x1="71" y1="115" x2="71" y2="115" stroke="rgb(0,0,0)" stroke-width="1"/>
<line x1="63" y1="115" x2="79" y2="115" stroke="rgb(0,0,0)" stroke-width="1"/>
<line x1="71" y1="115" x2="71" y2="115" stroke="rgb(0,0,0)" stroke-width="1"/>
<line x1="63" y1="115" x2="79" y2="115" stroke="rgb(0,0,0)" stroke-width="1"/>
<line x1="63" y1="115" x2="79" y2="115" stroke="rgb(200,0,0)" stroke-width="1"/>
<rect width="16" height="0" x="83" y="115" style="fill:rgb(240,240,0);stroke:none"/>
<rect width="16" height="0" x="83" y="115" rx="0" ry="0" style="fill:none;stroke-width:1;stroke:rgb(0,0,0)"/>
<line x1="91" y1="115" x2="91" y2="115" stroke="rgb(0,0,0)" stroke-width="1"/>
<line x1="83" y1="115" x2="99" y2="115" stroke="rgb(0,0,0)" stroke-width="1"/>
<line x1="91" y1="115" x2="91" y2="115" stroke="rgb(0,0,0)" stroke-width="1"/>
<line x1="83" y1="115" x2="99" y2="115" stroke="rgb(0,0,0)" stroke-width="1"/>
<line x1="83" y1="115" x2="99" y2="115" stroke="rgb(200,0,0)" stroke-width="1"/>
<rect width="16" height="0" x="103" y="115" style="fill:rgb(240,240,0);stroke:none"/>
<rect width="16" height="0" x="103" y="115" rx="0" ry="0" style="fill:none;stroke-width:1;stroke:rgb(0,0,0)"/>
<line x1="111" y1="115" x2="111" y2="115" stroke="rgb(0,0,0)" stroke-width="1"/>
<line x1="103" y1="115" x2="119" y2="115" stroke="rgb(0,0,0)" stroke-width="1"/>
<line x1="111" y1="115" x2="111" y2="115" stroke="rgb(0,0,0)" stroke-width="1"/>
<line x1="103" y1="115" x2="119" y2="115" stroke="rgb(0,0,0)" stroke-width="1"/>
<line x1="103" y1="115" x2="119" y2="115" stroke="rgb(200,0,0)" stroke-width="1"/>
<rect width="16" height="0" x="123" y="115" style="fill:rgb(240,240,0);stroke:none"/>
<rect width="16" height="0" x="123" y="115" rx="0" ry="0" style="fill:none;stroke-width:1;stroke:rgb(0,0,0)"/>
<line x1="131" y1="115" x2="131" y2="115" stroke="rgb(0,0,0)" stroke-width="1"/>
<line x1="123" y1="115" x2="139" y2="115" stroke="rgb(0,0,0)" stroke-width="1"/>
<line x1="131" y1="115" x2="131" y2="115" stroke="rgb(0,0,0)" stroke-width="1"/>
<line x1="123" y1="115" x2="139" y2="115" stroke="rgb(0,0,0)" stroke-width="1"/>
<line x1="123" y1="115" x2="139" y2="115" stroke="rgb(200,0,0)" stroke-width="1"/>
<rect width="16" height="0" x="143" y="115" style="fill:rgb(240,240,0);stroke:none"/>
<rect width="16" height="0" x="143" y="115" rx="0" ry="0" style="fill:none;stroke-width:1;stroke:rgb(0,0,0)"/>
<line x1="151" y1="115" x2="151" y2="115" stroke="rgb(0,0,0)" stroke-width="1"/>
<line x1="143" y1="115" x2="159" y2="115" stroke="rgb(0,0,0)" stroke-width="1"/>
<line x1="151" y1="115" x2="151" y2="115" stroke="rgb(0,0,0)" stroke-width="1"/>
<line x1="143" y1="115" x2="159" y2="115" stroke="rgb(0,0,0)" stroke-width="1"/>
<line x1="143" y1="115" x2="159" y2="115" stroke="rgb(200,0,0)" stroke-width="1"/>
<rect width="16" height="0" x="163" y="115" style="fill:rgb(240,240,0);stroke:none"/>
<rect width="16" height="0" x="163" y="115" rx="0" ry="0" style="fill:none;stroke-width:1;stroke:rgb(0,0,0)"/>
<line x1="171" y1="115" x2="171" y2="115" stroke="rgb(0,0,0)" stroke-width="1"/>
<line x1="163" y1="115" x2="179" y2="115" stroke="rgb(0,0,0)" stroke-width="1"/>
<line x1="171" y1="115" x2="171" y2="115" stroke="rgb(0,0,0)" stroke-width="1"/>
<line x1="163" y1="115" x2="179" y2="115" stroke="rgb(0,0,0)" stroke-width="1"/>
<line x1="163" y1="115" x2="179" y2="115" stroke="rgb(200,0,0)" stroke-width="1"/>
<rect width="16" height="0" x="183" y="115" style="fill:rgb(240,240,0);stroke:none"/>
<rect width="16" height="0" x="183" y="115" rx="0" ry="0" style="fill:none;stroke-width:1;stroke:rgb(0,0,0)"/>
<line x1="191" y1="115" x2="191" y2="115" stroke="rgb(0,0,0)" stroke-width="1"/>
<line x1="183" y1="115" x2="199" y2="115" stroke="rgb(0,0,0)" stroke-width="1"/>
<line x1="191" y1="115" x2="191" y2="115" stroke="rgb(0,0,0)" stroke-width="1"/>
<line x1="183" y1="115" x2="199" y2="115" stroke="rgb(0,0,0)" stroke-width="1"/>
<line x1="183" y1="115" x2="199" y2="115" stroke="rgb(200,0,0)" stroke-width="1"/>
<rect width="16" height="0" x="203" y="115" style="fill:rgb(240,240,0);stroke:none"/>
<rect width="16" height="0" x="203" y="115" rx="0" ry="0" style="fill:none;stroke-width:1;stroke:rgb(0,0,0)"/>
<line x1="211" y1="115" x2="211" y2="115" stroke="rgb(0,0,0)" stroke-width="1"/>
<line x1="203" y1="115" x2="219" y2="115" stroke="rgb(0,0,0)" stroke-width="1"/>
<line x1="211" y1="115" x2="211" y2="115" stroke="rgb(0,0,0)" stroke-width="1"/>
<line x1="203" y1="115" x2="219" y2="115" stroke="rgb(0,0,0)" stroke-width="1"/>
<line x1="203" y1="115" x2="219" y2="115" stroke="rgb(200,0,0)" stroke-width="1"/>
<rect width="16" height="0" x="223" y="115" style="fill:rgb(240,240,0);stroke:none"/>
<rect width="16" height="0" x="223" y="115" rx="0" ry="0" style="fill:none;stroke-width:1;stroke:rgb(0,0,0)"/>
<line x1="231" y1="115" x2="231" y2="115" stroke="rgb(0,0,0)" stroke-width="1"/>
<line x1="223" y1="115" x2="239" y2="115" stroke="rgb(0,0,0)" stroke-width="1"/>
<line x1="231" y1="115" x2="231" y2="115" stroke="rgb(0,0,0)" stroke-width="1"/>
<line x1="223" y1="115" x2="239" y2="115" stroke="rgb(0,0,0)" stroke-width="1"/>
<line x1="223" y1="115" x2="239" y2="115" stroke="rgb(200,0,0)" stroke-width="1"/>
<rect width="16" height="0" x="243" y="115" style="fill:rgb(240,240,0);stroke:none"/>
<rect width="16" height="0" x="243" y="115" rx="0" ry="0" style="fill:none;stroke-width:1;stroke:rgb(0,0,0)"/>
<line x1="251" y1="115" x2="251" y2="115" stroke="rgb(0,0,0)" stroke-width="1"/>
<line x1="243" y1="115" x2="259" y2="115" stroke="rgb(0,0,0)" stroke-width="1"/>
<line x1="251" y1="115" x2="251" y2="115" stroke="rgb(0,0,0)" stroke-width="1"/>
<line x1="243" y1="115" x2="259" y2="115" stroke="rgb(0,0,0)" stroke-width="1"/>
<line x1="243" y1="115" x2="259" y2="115" stroke="rgb(200,0,0)" stroke-width="1"/>
<rect width="16" height="0" x="263" y="115" style="fill:rgb(240,240,0);stroke:none"/>
<rect width="16" height="0" x="263" y="115" rx="0" ry="0" style="fill:none;stroke-width:1;stroke:rgb(0,0,0)"/>
<line x1="271" y1="115" x2="271" y2="115" stroke="rgb(0,0,0)" stroke-width="1"/>
<line x1="263" y1="115" x2="279" y2="115" stroke="rgb(0,0,0)" stroke-width="1"/>
<line x1="271" y1="115" x2="271" y2="115" stroke="rgb(0,0,0)" stroke-width="1"/>
<line x1="263" y1="115" x2="279" y2="115" stroke="rgb(0,0,0)" stroke-width="1"/>
<line x1="263" y1="115" x2="279" y2="115" stroke="rgb(200,0,0)" stroke-width="1"/>
<rect width="16" height="0" x="283" y="115" style="fill:rgb(240,240,0);stroke:none"/>
<rect width="16" height="0" x="283" y="115" rx="0" ry="0" style="fill:none;stroke-width:1;stroke:rgb(0,0,0)"/>
<line x1="291" y1="115" x2="291" y2="115" stroke="rgb(0,0,0)" stroke-width="1"/>
<line x1="283" y1="115" x2="299" y2="115" stroke="rgb(0,0,0)" stroke-width="1"/>
<line x1="291" y1="115" x2="291" y2="115" stroke="rgb(0,0,0)" stroke-width="1"/>
<line x1="283" y1="115" x2="299" y2="115" stroke="rgb(0,0,0)" stroke-width="1"/>
<line x1="283" y1="115" x2="299" y2="115" stroke="rgb(200,0,0)" stroke-width="1"/>
<rect width="16" height="0" x="303" y="115" style="fill:rgb(240,240,0);stroke:none"/>
<rect width="16" height="0" x="303" y="115" rx="0" ry="0" style="fill:none;stroke-width:1;stroke:rgb(0,0,0)"/>
<line x1="311" y1="115" x2="311" y2="115" stroke="rgb(0,0,0)" stroke-width="1"/>
<line x1="303" y1="115" x2="319" y2="115" stroke="rgb(0,0,0)" stroke-width="1"/>
<line x1="311" y1="115" x2="311" y2="115" stroke="rgb(0,0,0)" stroke-width="1"/>
<line x1="303" y1="115" x2="319" y2="115" stroke="rgb(0,0,0)" stroke-width="1"/>
<line x1="303" y1="115" x2="319" y2="115" stroke="rgb(200,0,0)" stroke-width="1"/>
<rect width="16" height="0" x="323" y="115" style="fill:rgb(240,240,0);stroke:none"/>
<rect width="16" height="0" x="323" y="115" rx="0" ry="0" style="fill:none;stroke-width:1;stroke:rgb(0,0,0)"/>
<line x1="331" y1="115" x2="331" y2="115" stroke="rgb(0,0,0)" stroke-width="1"/>
<line x1="323" y1="115" x2="339" y2="115" stroke="rgb(0,0,0)" stroke-width="1"/>
<line x1="331" y1="115" x2="331" y2="115" stroke="rgb(0,0,0)" stroke-width="1"/>
<line x1="323" y1="115" x2="339" y2="115" stroke="rgb(0,0,0)" stroke-width="1"/>
<line x1="323" y1="115" x2="339" y2="115" stroke="rgb(200,0,0)" stroke-width="1"/>
<rect width="16" height="0" x="343" y="115" style="fill:rgb(240,240,0);stroke:none"/>
<rect width="16" height="0" x="343" y="115" rx="0" ry="0" style="fill:none;stroke-width:1;stroke:rgb(0,0,0)"/>
<line x1="351" y1="115" x2="351" y2="115" stroke="rgb(0,0,0)" stroke-width="1"/>
<line x1="343" y1="115" x2="359" y2="115" stroke="rgb(0,0,0)" stroke-width="1"/>
<line x1="351" y1="115" x2="351" y2="115" stroke="rgb(0,0,0)" stroke-width="1"/>
<line x1="343" y1="115" x2="359" y2="115" stroke="rgb(0,0,0)" stroke-width="1"/>
<line x1="343" y1="115" x2="359" y2="115" stroke="rgb(200,0,0)" stroke-width="1"/>
<rect width="16" height="0" x="363" y="115" style="fill:rgb(240,240,0);stroke:none"/>
<rect width="16" height="0" x="363" y="115" rx="0" ry="0" style="fill:none;stroke-width:1;stroke:rgb(0,0,0)"/>
<line x1="371" y1="115" x2="371" y2="115" stroke="rgb(0,0,0)" stroke-width="1"/>
<line x1="363" y1="115" x2="379" y2="115" stroke="rgb(0,0,0)" stroke-width="1"/>
<line x1="371" y1="115" x2="371" y2="115" stroke="rgb(0,0,0)" stroke-width="1"/>
<line x1="363" y1="115" x2="379" y2="115" stroke="rgb(0,0,0)" stroke-width="1"/>
<line x1="363" y1="115" x2="379" y2="115" stroke="rgb(200,0,0)" stroke-width="1"/>
<rect width="16" height="0" x="383" y="115" style="fill:rgb(240,240,0);stroke:none"/>
<rect width="16" height="0" x="383" y="115" rx="0" ry="0" style="fill:none;stroke-width:1;stroke:rgb(0,0,0)"/>
<line x1="391" y1="115" x2="391" y2="115" stroke="rgb(0,0,0)" stroke-width="1"/>
<line x1="383" y1="115" x2="399" y2="115" stroke="rgb(0,0,0)" stroke-width="1"/>
<line x1="391" y1="115" x2="391" y2="115" stroke="rgb(0,0,0)" stroke-width="1"/>
<line x1="383" y1="115" x2="399" y2="115" stroke="rgb(0,0,0)" stroke-width="1"/>
<line x1="383" y1="115" x2="399" y2="115" stroke="rgb(200,0,0)" stroke-width="1"/>
<rect width="16" height="0" x="403" y="115" style="fill:rgb(240,240,0);stroke:none"/>
<rect width="16" height="0" x="403" y="115" rx="0" ry="0" style="fill:none;stroke-width:1;stroke:rgb(0,0,0)"/>
<line x1="411" y1="115" x2="411" y2="115" stroke="rgb(0,0,0)" stroke-width="1"/>
<line x1="403" y1="115" x2="419" y2="115" stroke="rgb(0,0,0)" stroke-width="1"/>
<line x1="411" y1="115" x2="411" y2="115" stroke="rgb(0,0,0)" stroke-width="1"/>
<line x1="403" y1="115" x2="419" y2="115" stroke="rgb(0,0,0)" stroke-width="1"/>
<line x1="403" y1="115" x2="419" y2="115" stroke="rgb(200,0,0)" stroke-width="1"/>
<rect width="16" height="0" x="423" y="115" style="fill:rgb(240,240,0);stroke:none"/>
<rect width="16" height="0" x="423" y="115" rx="0" ry="0" style="fill:none;stroke-width:1;stroke:rgb(0,0,0)"/>
<line x1="431" y1="115" x2="431" y2="115" stroke="rgb(0,0,0)" stroke-width="1"/>
<line x1="423" y1="115" x2="439" y2="115" stroke="rgb(0,0,0)" stroke-width="1"/>
<line x1="431" y1="115" x2="431" y2="115" stroke="rgb(0,0,0)" stroke-width="1"/>
<line x1="423" y1="115" x2="439" y2="115" stroke="rgb(0,0,0)" stroke-width="1"/>
<line x1="423" y1="115" x2="439" y2="115" stroke="rgb(200,0,0)" stroke-width="1"/>
<rect width="16" height="0" x="443" y="115" style="fill:rgb(240,240,0);stroke:none"/>
<rect width="16" height="0" x="443" y="115" rx="0" ry="0" style="fill:none;stroke-width:1;stroke:rgb(0,0,0)"/>
<line x1="451" y1="115" x2="451" y2="115" stroke="rgb(0,0,0)" stroke-width="1"/>
<line x1="443" y1="115" x2="459" y2="115" stroke="rgb(0,0,0)" stroke-width="1"/>
<line x1="451" y1="144" x2="451" y2="115" stroke="rgb(0,0,0)" stroke-width="1"/>
<line x1="443" y1="144" x2="459" y2="144" stroke="rgb(0,0,0)" stroke-width="1"/>
<line x1="443" y1="115" x2="459" y2="115" stroke="rgb(200,0,0)" stroke-width="1"/>
<rect width="16" height="0" x="463" y="115" style="fill:rgb(240,240,0);stroke:none"/>
<rect width="16" height="0" x="463" y="115" rx="0" ry="0" style="fill:none;stroke-width:1;stroke:rgb(0,0,0)"/>
<line x1="471" y1="115" x2="471" y2="115" stroke="rgb(0,0,0)" stroke-width="1"/>
<line x1="463" y1="115" x2="479" y2="115" stroke="rgb(0,0,0)" stroke-width="1"/>
<line x1="471" y1="115" x2="471" y2="115" stroke="rgb(0,0,0)" stroke-width="1"/>
<line x1="463" y1="115" x2="479" y2="115" stroke="rgb(0,0,0)" stroke-width="1"/>
<line x1="463" y1="115" x2="479" y2="115" stroke="rgb(200,0,0)" stroke-width="1"/>
<rect width="16" height="0" x="483" y="115" style="fill:rgb(240,240,0);stroke:none"/>
<rect width="16" height="0" x="483" y="115" rx="0" ry="0" style="fill:none;stroke-width:1;stroke:rgb(0,0,0)"/>
<line x1="491" y1="115" x2="491" y2="115" stroke="rgb(0,0,0)" stroke-width="1"/>
<line x1="483" y1="115" x2="499" y2="115" stroke="rgb(0,0,0)" stroke-width="1"/>
<line x1="491" y1="115" x2="491" y2="115" stroke="rgb(0,0,0)" stroke-width="1"/>
<line x1="483" y1="115" x2="499" y2="115" stroke="rgb(0,0,0)" stroke-width="1"/>
<line x1="483" y1="115" x2="499" y2="115" stroke="rgb(200,0,0)" stroke-width="1"/>
<rect width="16" height="0" x="503" y="115" style="fill:rgb(240,240,0);stroke:none"/>
<rect width="16" height="0" x="503" y="115" rx="0" ry="0" style="fill:none;stroke-width:1;stroke:rgb(0,0,0)"/>
<line x1="511" y1="115" x2="511" y2="115" stroke="rgb(0,0,0)" stroke-width="1"/>
<line x1="503" y1="115" x2="519" y2="115" stroke="rgb(0,0,0)" stroke-width="1"/>
<line x1="511" y1="115" x2="511" y2="115" stroke="rgb(0,0,0)" stroke-width="1"/>
<line x1="503" y1="115" x2="519" y2="115" stroke="rgb(0,0,0)" stroke-width="1"/>
<line x1="503" y1="115" x2="519" y2="115" stroke="rgb(200,0,0)" stroke-width="1"/>
<rect width="16" height="0" x="523" y="115" style="fill:rgb(240,240,0);stroke:none"/>
<rect width="16" height="0" x="523" y="115" rx="0" ry="0" style="fill:none;stroke-width:1;stroke:rgb(0,0,0)"/>
<line x1="531" y1="115" x2="531" y2="115" stroke="rgb(0,0,0)" stroke-width="1"/>
<line x1="523" y1="115" x2="539" y2="115" stroke="rgb(0,0,0)" stroke-width="1"/>
<line x1="531" y1="115" x2="531" y2="115" stroke="rgb(0,0,0)" stroke-width="1"/>
<line x1="523" y1="115" x2="539" y2="115" stroke="rgb(0,0,0)" stroke-width="1"/>
<line x1="523" y1="115" x2="539" y2="115" stroke="rgb(200,0,0)" stroke-width="1"/>
<rect width="16" height="0" x="543" y="115" style="fill:rgb(240,240,0);stroke:none"/>
<rect width="16" height="0" x="543" y="115" rx="0" ry="0" style="fill:none;stroke-width:1;stroke:rgb(0,0,0)"/>
<line x1="551" y1="115" x2="551" y2="115" stroke="rgb(0,0,0)" stroke-width="1"/>
<line x1="543" y1="115" x2="559" y2="115" stroke="rgb(0,0,0)" stroke-width="1"/>
<line x1="551" y1="115" x2="551" y2="115" stroke="rgb(0,0,0)" stroke-width="1"/>
<line x1="543" y1="115" x2="559" y2="115" stroke="rgb(0,0,0)" stroke-width="1"/>
<line x1="543" y1="115" x2="559" y2="115" stroke="rgb(200,0,0)" stroke-width="1"/>
<rect width="16" height="0" x="563" y="115" style="fill:rgb(240,240,0);stroke:none"/>
<rect width="16" height="0" x="563" y="115" rx="0" ry="0" style="fill:none;stroke-width:1;stroke:rgb(0,0,0)"/>
<line x1="571" y1="115" x2="571" y2="115" stroke="rgb(0,0,0)" stroke-width="1"/>
<line x1="563" y1="115" x2="579" y2="115" stroke="rgb(0,0,0)" stroke-width="1"/>
<line x1="571" y1="115" x2="571" y2="115" stroke="rgb(0,0,0)" stroke-width="1"/>
<line x1="563" y1="115" x2="579" y2="115" stroke="rgb(0,0,0)" stroke-width="1"/>
<line x1="563" y1="115" x2="579" y2="115" stroke="rgb(200,0,0)" stroke-width="1"/>
<rect width="16" height="0" x="583" y="115" style="fill:rgb(240,240,0);stroke:none"/>
<rect width="16" height="0" x="583" y="115" rx="0" ry="0" style="fill:none;stroke-width:1;stroke:rgb(0,0,0)"/>
<line x1="591" y1="115" x2="591" y2="115" stroke="rgb(0,0,0)" stroke-width="1"/>
<line x1="583" y1="115" x2="599" y2="115" stroke="rgb(0,0,0)" stroke-width="1"/>
<line x1="591" y1="115" x2="591" y2="115" stroke="rgb(0,0,0)" stroke-width="1"/>
<line x1="583" y1="115" x2="599" y2="115" stroke="rgb(0,0,0)" stroke-width="1"/>
<line x1="583" y1="115" x2="599" y2="115" stroke="rgb(200,0,0)" stroke-width="1"/>
<rect width="16" height="0" x="603" y="115" style="fill:rgb(240,240,0);stroke:none"/>
<rect width="16" height="0" x="603" y="115" rx="0" ry="0" style="fill:none;stroke-width:1;stroke:rgb(0,0,0)"/>
<line x1="611" y1="115" x2="611" y2="115" stroke="rgb(0,0,0)" stroke-width="1"/>
<line x1="603" y1="115" x2="619" y2="115" stroke="rgb(0,0,0)" stroke-width="1"/>
<line x1="611" y1="115" x2="611" y2="115" stroke="rgb(0,0,0)" stroke-width="1"/>
<line x1="603" y1="115" x2="619" y2="115" stroke="rgb(0,0,0)" stroke-width="1"/>
<line x1="603" y1="115" x2="619" y2="115" stroke="rgb(200,0,0)" stroke-width="1"/>
<rect width="16" height="0" x="623" y="115" style="fill:rgb(240,240,0);stroke:none"/>
<rect width="16" height="0" x="623" y="115" rx="0" ry="0" style="fill:none;stroke-width:1;stroke:rgb(0,0,0)"/>
<line x1="631" y1="115" x2="631" y2="115" stroke="rgb(0,0,0)" stroke-width="1"/>
<line x1="623" y1="115" x2="639" y2="115" stroke="rgb(0,0,0)" stroke-width="1"/>
<line x1="631" y1="115" x2="631" y2="115" stroke="rgb(0,0,0)" stroke-width="1"/>
<line x1="623" y1="115" x2="639" y2="115" stroke="rgb(0,0,0)" stroke-width="1"/>
<line x1="623" y1="115" x2="639" y2="115" stroke="rgb(200,0,0)" stroke-width="1"/>
<rect width="16" height="0" x="643" y="115" style="fill:rgb(240,240,0);stroke:none"/>
<rect width="16" height="0" x="643" y="115" rx="0" ry="0" style="fill:none;stroke-width:1;stroke:rgb(0,0,0)"/>
<line x1="651" y1="115" x2="651" y2="115" stroke="rgb(0,0,0)" stroke-width="1"/>
<line x1="643" y1="115" x2="659" y2="115" stroke="rgb(0,0,0)" stroke-width="1"/>
<line x1="651" y1="234" x2="651" y2="115" stroke="rgb(0,0,0)" stroke-width="1"/>
<line x1="643" y1="234" x2="659" y2="234" stroke="rgb(0,0,0)" stroke-width="1"/>
<line x1="643" y1="115" x2="659" y2="115" stroke="rgb(200,0,0)" stroke-width="1"/>
<rect width="16" height="0" x="663" y="115" style="fill:rgb(240,240,0);stroke:none"/>
<rect width="16" height="0" x="663" y="115" rx="0" ry="0" style="fill:none;stroke-width:1;stroke:rgb(0,0,0)"/>
<line x1="671" y1="115" x2="671" y2="115" stroke="rgb(0,0,0)" stroke-width="1"/>
<line x1="663" y1="115" x2="679" y2="115" stroke="rgb(0,0,0)" stroke-width="1"/>
<line x1="671" y1="263" x2="671" y2="115" stroke="rgb(0,0,0)" stroke-width="1"/>
<line x1="663" y1="263" x2="679" y2="263" stroke="rgb(0,0,0)" stroke-width="1"/>
<line x1="663" y1="115" x2="679" y2="115" stroke="rgb(200,0,0)" stroke-width="1"/>
<rect width="16" height="0" x="683" y="115" style="fill:rgb(240,240,0);stroke:none"/>
<rect width="16" height="0" x="683" y="115" rx="0" ry="0" style="fill:none;stroke-width:1;stroke:rgb(0,0,0)"/>
<line x1="691" y1="115" x2="691" y2="115" stroke="rgb(0,0,0)" stroke-width="1"/>
<line x1="683" y1="115" x2="699" y2="115" stroke="rgb(0,0,0)" stroke-width="1"/>
<line x1="691" y1="263" x2="691" y2="115" stroke="rgb(0,0,0)" stroke-width="1"/>
<line x1="683" y1="263" x2="699" y2="263" stroke="rgb(0,0,0)" stroke-width="1"/>
<line x1="683" y1="115" x2="699" y2="115" stroke="rgb(200,0,0)" stroke-width="1"/>
<rect width="16" height="0" x="703" y="115" style="fill:rgb(240,240,0);stroke:none"/>
<rect width="16" height="0" x="703" y="115" rx="0" ry="0" style="fill:none;stroke-width:1;stroke:rgb(0,0,0)"/>
<line x1="711" y1="115" x2="711" y2="115" stroke="rgb(0,0,0)" stroke-width="1"/>
<line x1="703" y1="115" x2="719" y2="115" stroke="rgb(0,0,0)" stroke-width="1"/>
<line x1="711" y1="263" x2="711" y2="115" stroke="rgb(0,0,0)" stroke-width="1"/>
<line x1="703" y1="263" x2="719" y2="263" stroke="rgb(0,0,0)" stroke-width="1"/>
<line x1="703" y1="115" x2="719" y2="115" stroke="rgb(200,0,0)" stroke-width="1"/>
<rect width="16" height="0" x="723" y="115" style="fill:rgb(240,240,0);stroke:none"/>
<rect width="16" height="0" x="723" y="115" rx="0" ry="0" style="fill:none;stroke-width:1;stroke:rgb(0,0,0)"/>
<line x1="731" y1="115" x2="731" y2="115" stroke="rgb(0,0,0)" stroke-width="1"/>
<line x1="723" y1="115" x2="739" y2="115" stroke="rgb(0,0,0)" stroke-width="1"/>
<line x1="731" y1="263" x2="731" y2="115" stroke="rgb(0,0,0)" stroke-width="1"/>
<line x1="723" y1="263" x2="739" y2="263" stroke="rgb(0,0,0)" stroke-width="1"/>
<line x1="723" y1="115" x2="739" y2="115" stroke="rgb(200,0,0)" stroke-width="1"/>
<rect width="16" height="0" x="743" y="115" style="fill:rgb(240,240,0);stroke:none"/>
<rect width="16" height="0" x="743" y="115" rx="0" ry="0" style="fill:none;stroke-width:1;stroke:rgb(0,0,0)"/>
<line x1="751" y1="115" x2="751" y2="115" stroke="rgb(0,0,0)" stroke-width="1"/>
<line x1="743" y1="115" x2="759" y2="115" stroke="rgb(0,0,0)" stroke-width="1"/>
<line x1="751" y1="263" x2="751" y2="115" stroke="rgb(0,0,0)" stroke-width="1"/>
<line x1="743" y1="263" x2="759" y2="263" stroke="rgb(0,0,0)" stroke-width="1"/>
<line x1="743" y1="115" x2="759" y2="115" stroke="rgb(200,0,0)" stroke-width="1"/>
<rect width="16" height="0" x="763" y="115" style="fill:rgb(240,240,0);stroke:none"/>
<rect width="16" height="0" x="763" y="115" rx="0" ry="0" style="fill:none;stroke-width:1;stroke:rgb(0,0,0)"/>
<line x1="771" y1="115" x2="771" y2="115" stroke="rgb(0,0,0)" stroke-width="1"/>
<line x1="763" y1="115" x2="779" y2="115" stroke="rgb(0,0,0)" stroke-width="1"/>
<line x1="771" y1="263" x2="771" y2="115" stroke="rgb(0,0,0)" stroke-width="1"/>
<line x1="763" y1="263" x2="779" y2="263" stroke="rgb(0,0,0)" stroke-width="1"/>
<line x1="763" y1="115" x2="779" y2="115" stroke="rgb(200,0,0)" stroke-width="1"/>
<line x1="31" y1="117" x2="51" y2="121" stroke="rgb(0,0,200)" stroke-width="1"/>
<line x1="51" y1="121" x2="71" y2="117" stroke="rgb(0,0,200)" stroke-width="1"/>
<line x1="71" y1="117" x2="91" y2="118" stroke="rgb(0,0,200)" stroke-width="1"/>
<line x1="91" y1="118" x2="111" y2="117" stroke="rgb(0,0,200)" stroke-width="1"/>
<line x1="111" y1="117" x2="131" y2="118" stroke="rgb(0,0,200)" stroke-width="1"/>
<line x1="131" y1="118" x2="151" y2="117" stroke="rgb(0,0,200)" stroke-width="1"/>
<line x1="151" y1="117" x2="171" y2="117" stroke="rgb(0,0,200)" stroke-width="1"/>
<line x1="171" y1="117" x2="191" y2="117" stroke="rgb(0,0,200)" stroke-width="1"/>
<line x1="191" y1="117" x2="211" y2="117" stroke="rgb(0,0,200)" stroke-width="1"/>
<line x1="211" y1="117" x2="231" y2="117" stroke="rgb(0,0,200)" stroke-width="1"/>
<line x1="231" y1="117" x2="251" y2="118" stroke="rgb(0,0,200)" stroke-width="1"/>
<line x1="251" y1="118" x2="271" y2="119" stroke="rgb(0,0,200)" stroke-width="1"/>
<line x1="271" y1="119" x2="291" y2="119" stroke="rgb(0,0,200)" stroke-width="1"/>
<line x1="291" y1="119" x2="311" y2="120" stroke="rgb(0,0,200)" stroke-width="1"/>
<line x1="311" y1="120" x2="331" y2="121" stroke="rgb(0,0,200)" stroke-width="1"/>
<line x1="331" y1="121" x2="351" y2="121" stroke="rgb(0,0,200)" stroke-width="1"/>
<line x1="351" y1="121" x2="371" y2="122" stroke="rgb(0,0,200)" stroke-width="1"/>
<line x1="371" y1="122" x2="391" y2="122" stroke="rgb(0,0,200)" stroke-width="1"/>
<line x1="391" y1="122" x2="411" y2="123" stroke="rgb(0,0,200)" stroke-width="1"/>
<line x1="411" y1="123" x2="431" y2="124" stroke="rgb(0,0,200)" stroke-width="1"/>
<line x1="431" y1="124" x2="451" y2="127" stroke="rgb(0,0,200)" stroke-width="1"/>
<line x1="451" y1="127" x2="471" y2="125" stroke="rgb(0,0,200)" stroke-width="1"/>
<line x1="471" y1="125" x2="491" y2="125" stroke="rgb(0,0,200)" stroke-width="1"/>
<line x1="491" y1="125" x2="511" y2="127" stroke="rgb(0,0,200)" stroke-width="1"/>
<line x1="511" y1="127" x2="531" y2="128" stroke="rgb(0,0,200)" stroke-width="1"/>
<line x1="531" y1="128" x2="551" y2="129" stroke="rgb(0,0,200)" stroke-width="1"/>
<line x1="551" y1="129" x2="571" y2="130" stroke="rgb(0,0,200)" stroke-width="1"/>
<line x1="571" y1="130" x2="591" y2="132" stroke="rgb(0,0,200)" stroke-width="1"/>
<line x1="591" y1="132" x2="611" y2="133" stroke="rgb(0,0,200)" stroke-width="1"/>
<line x1="611" y1="133" x2="631" y2="136" stroke="rgb(0,0,200)" stroke-width="1"/>
<line x1="631" y1="136" x2="651" y2="138" stroke="rgb(0,0,200)" stroke-width="1"/>
<line x1="651" y1="138" x2="671" y2="139" stroke="rgb(0,0,200)" stroke-width="1"/>
<line x1="671" y1="139" x2="691" y2="142" stroke="rgb(0,0,200)" stroke-width="1"/>
<line x1="691" y1="142" x2="711" y2="144" stroke="rgb(0,0,200)" stroke-width="1"/>
<line x1="711" y1="144" x2="731" y2="149" stroke="rgb(0,0,200)" stroke-width="1"/>
<line x1="731" y1="149" x2="751" y2="150" stroke="rgb(0,0,200)" stroke-width="1"/>
<line x1="751" y1="150" x2="771" y2="151" stroke="rgb(0,0,200)" stroke-width="1"/>
</svg>
